# xmcd CD database file
#
# Track frame offsets:
#	150
#	15924
#	37041
#	58634
#	85130
#	101972
#	122223
#	143870
#	159451
#	176587
#	192469
#	212786
#	233758
#	257433
#
# Disc length: 3592 seconds
#
# Revision: 0
# Processed by: cddbd v1.5.2PL0 Copyright (c) Steve Scherf et al.
# Submitted via: CDex 1.51
#
DISCID=bf0e060e
DTITLE=James,Nathan and The Rhythm Scratchers - What You Make Of It
DYEAR=2012
DGENRE=Blues
TTITLE0=Chosen Kind
TTITLE1=What You Make Of It
TTITLE2=Black Snakin' Jiver
TTITLE3=Later On
TTITLE4=Get To The Country
TTITLE5=Make It On Your Own
TTITLE6=Rhino Horn
TTITLE7=Pretty Baby Don`t Be Late
TTITLE8=Blues Headache
TTITLE9=Pain Inside Waltz
TTITLE10=I`m A Slave To You
TTITLE11=First And The Most
TTITLE12=You Led Me On
TTITLE13=Tri-Tar Shuffle Twist
EXTD=YEAR: 2012
EXTT0=
EXTT1=
EXTT2=
EXTT3=
EXTT4=
EXTT5=
EXTT6=
EXTT7=
EXTT8=
EXTT9=
EXTT10=
EXTT11=
EXTT12=
EXTT13=
PLAYORDER=
